<?xml version="1.0" encoding="utf-8"?>
<!-- Generator: Adobe Illustrator 16.0.0, SVG Export Plug-In . SVG Version: 6.00 Build 0)  -->
<!DOCTYPE svg PUBLIC "-//W3C//DTD SVG 1.1//EN" "http://www.w3.org/Graphics/SVG/1.1/DTD/svg11.dtd">
<svg version="1.1" id="Layer_1" xmlns="http://www.w3.org/2000/svg" xmlns:xlink="http://www.w3.org/1999/xlink" x="0px" y="0px"
	 width="100px" height="100px" viewBox="0 0 100 100" enable-background="new 0 0 100 100" xml:space="preserve">
<path fill="none" stroke="#333333" stroke-width="5" stroke-miterlimit="10" d="M68.167,63.597c0,9.694-7.859,17.553-17.554,17.553
	h-0.226c-9.695,0-17.554-7.858-17.554-17.553V36.404c0-9.694,7.859-17.554,17.554-17.554h0.226c9.694,0,17.554,7.859,17.554,17.554
	L68.167,63.597L68.167,63.597z"/>
<g>
	<g>
		<path fill="#D0394B" d="M-40.239,32.636c0,3.263,0,6.526,0,9.79c0,2.572,3.988,2.572,3.988,0c0-3.263,0-6.526,0-9.79
			C-36.25,30.063-40.239,30.063-40.239,32.636L-40.239,32.636z"/>
	</g>
</g>
<rect x="48.521" y="31.707" fill="#D0394B" width="3.958" height="19.293"/>
</svg>
